<mxfile host="app.diagrams.net" modified="2024-05-12T18:21:18.839Z" agent="Mozilla/5.0 (Windows NT 10.0; Win64; x64) AppleWebKit/537.36 (KHTML, like Gecko) Chrome/124.0.0.0 Safari/537.36 Edg/124.0.0.0" etag="_QLiCQ-XqqY7sBQfvH3L" version="24.4.0" type="device">
  <diagram name="Страница — 1" id="NXCsuUSFvgV-njq2mUWH">
    <mxGraphModel dx="1002" dy="569" grid="1" gridSize="10" guides="1" tooltips="1" connect="1" arrows="1" fold="1" page="1" pageScale="1" pageWidth="827" pageHeight="1169" math="0" shadow="0">
      <root>
        <mxCell id="0" />
        <mxCell id="1" parent="0" />
        <mxCell id="VgNtUhD-SbEYT73MPKsB-3" style="edgeStyle=orthogonalEdgeStyle;rounded=0;orthogonalLoop=1;jettySize=auto;html=1;exitX=0.5;exitY=1;exitDx=0;exitDy=0;entryX=0.5;entryY=0;entryDx=0;entryDy=0;" edge="1" parent="1" source="VgNtUhD-SbEYT73MPKsB-1" target="VgNtUhD-SbEYT73MPKsB-2">
          <mxGeometry relative="1" as="geometry" />
        </mxCell>
        <mxCell id="VgNtUhD-SbEYT73MPKsB-1" value="Начало" style="ellipse;whiteSpace=wrap;html=1;" vertex="1" parent="1">
          <mxGeometry x="340" y="10" width="130" height="60" as="geometry" />
        </mxCell>
        <mxCell id="VgNtUhD-SbEYT73MPKsB-8" style="edgeStyle=orthogonalEdgeStyle;rounded=0;orthogonalLoop=1;jettySize=auto;html=1;exitX=0.5;exitY=1;exitDx=0;exitDy=0;entryX=0.5;entryY=0;entryDx=0;entryDy=0;" edge="1" parent="1" source="VgNtUhD-SbEYT73MPKsB-2" target="VgNtUhD-SbEYT73MPKsB-4">
          <mxGeometry relative="1" as="geometry">
            <Array as="points">
              <mxPoint x="405" y="180" />
            </Array>
          </mxGeometry>
        </mxCell>
        <mxCell id="VgNtUhD-SbEYT73MPKsB-2" value="arraySize&lt;div&gt;inputStrings[arraySize]&lt;/div&gt;" style="rounded=1;whiteSpace=wrap;html=1;" vertex="1" parent="1">
          <mxGeometry x="340" y="100" width="135" height="60" as="geometry" />
        </mxCell>
        <mxCell id="VgNtUhD-SbEYT73MPKsB-9" value="" style="edgeStyle=orthogonalEdgeStyle;rounded=0;orthogonalLoop=1;jettySize=auto;html=1;" edge="1" parent="1" source="VgNtUhD-SbEYT73MPKsB-4" target="VgNtUhD-SbEYT73MPKsB-5">
          <mxGeometry relative="1" as="geometry" />
        </mxCell>
        <mxCell id="VgNtUhD-SbEYT73MPKsB-4" value="suitableCount = 0" style="rounded=0;whiteSpace=wrap;html=1;" vertex="1" parent="1">
          <mxGeometry x="350" y="180" width="120" height="60" as="geometry" />
        </mxCell>
        <mxCell id="VgNtUhD-SbEYT73MPKsB-10" style="edgeStyle=orthogonalEdgeStyle;rounded=0;orthogonalLoop=1;jettySize=auto;html=1;exitX=0.5;exitY=1;exitDx=0;exitDy=0;entryX=0.5;entryY=0;entryDx=0;entryDy=0;" edge="1" parent="1" source="VgNtUhD-SbEYT73MPKsB-5" target="VgNtUhD-SbEYT73MPKsB-6">
          <mxGeometry relative="1" as="geometry" />
        </mxCell>
        <mxCell id="VgNtUhD-SbEYT73MPKsB-20" style="edgeStyle=orthogonalEdgeStyle;rounded=0;orthogonalLoop=1;jettySize=auto;html=1;exitX=1;exitY=0.5;exitDx=0;exitDy=0;" edge="1" parent="1" source="VgNtUhD-SbEYT73MPKsB-5" target="VgNtUhD-SbEYT73MPKsB-19">
          <mxGeometry relative="1" as="geometry" />
        </mxCell>
        <mxCell id="VgNtUhD-SbEYT73MPKsB-5" value="foreach&lt;div&gt;str int inputStrings&lt;/div&gt;" style="rhombus;whiteSpace=wrap;html=1;" vertex="1" parent="1">
          <mxGeometry x="325" y="270" width="170" height="90" as="geometry" />
        </mxCell>
        <mxCell id="VgNtUhD-SbEYT73MPKsB-11" style="edgeStyle=orthogonalEdgeStyle;rounded=0;orthogonalLoop=1;jettySize=auto;html=1;exitX=0.5;exitY=1;exitDx=0;exitDy=0;entryX=0.5;entryY=0;entryDx=0;entryDy=0;" edge="1" parent="1" source="VgNtUhD-SbEYT73MPKsB-6" target="VgNtUhD-SbEYT73MPKsB-7">
          <mxGeometry relative="1" as="geometry" />
        </mxCell>
        <mxCell id="VgNtUhD-SbEYT73MPKsB-18" style="edgeStyle=orthogonalEdgeStyle;rounded=0;orthogonalLoop=1;jettySize=auto;html=1;exitX=0;exitY=0.5;exitDx=0;exitDy=0;" edge="1" parent="1" source="VgNtUhD-SbEYT73MPKsB-6">
          <mxGeometry relative="1" as="geometry">
            <mxPoint x="240" y="420" as="targetPoint" />
          </mxGeometry>
        </mxCell>
        <mxCell id="VgNtUhD-SbEYT73MPKsB-6" value="str.Length &amp;lt;= 3" style="rhombus;whiteSpace=wrap;html=1;" vertex="1" parent="1">
          <mxGeometry x="342.5" y="380" width="132.5" height="80" as="geometry" />
        </mxCell>
        <mxCell id="VgNtUhD-SbEYT73MPKsB-15" style="edgeStyle=orthogonalEdgeStyle;rounded=0;orthogonalLoop=1;jettySize=auto;html=1;exitX=0;exitY=0.5;exitDx=0;exitDy=0;entryX=0;entryY=0.5;entryDx=0;entryDy=0;" edge="1" parent="1" source="VgNtUhD-SbEYT73MPKsB-7" target="VgNtUhD-SbEYT73MPKsB-2">
          <mxGeometry relative="1" as="geometry">
            <mxPoint x="250" y="120" as="targetPoint" />
            <Array as="points">
              <mxPoint x="240" y="510" />
              <mxPoint x="240" y="130" />
            </Array>
          </mxGeometry>
        </mxCell>
        <mxCell id="VgNtUhD-SbEYT73MPKsB-7" value="suitableCount ++" style="rounded=0;whiteSpace=wrap;html=1;" vertex="1" parent="1">
          <mxGeometry x="350" y="480" width="120" height="60" as="geometry" />
        </mxCell>
        <mxCell id="VgNtUhD-SbEYT73MPKsB-12" value="Yes" style="text;html=1;align=center;verticalAlign=middle;whiteSpace=wrap;rounded=0;" vertex="1" parent="1">
          <mxGeometry x="415" y="450" width="60" height="30" as="geometry" />
        </mxCell>
        <mxCell id="VgNtUhD-SbEYT73MPKsB-13" value="Yes" style="text;html=1;align=center;verticalAlign=middle;whiteSpace=wrap;rounded=0;" vertex="1" parent="1">
          <mxGeometry x="410" y="240" width="60" height="30" as="geometry" />
        </mxCell>
        <mxCell id="VgNtUhD-SbEYT73MPKsB-17" value="No" style="text;html=1;align=center;verticalAlign=middle;whiteSpace=wrap;rounded=0;" vertex="1" parent="1">
          <mxGeometry x="265" y="390" width="60" height="30" as="geometry" />
        </mxCell>
        <mxCell id="VgNtUhD-SbEYT73MPKsB-23" style="edgeStyle=orthogonalEdgeStyle;rounded=0;orthogonalLoop=1;jettySize=auto;html=1;exitX=0.5;exitY=1;exitDx=0;exitDy=0;entryX=0.5;entryY=0;entryDx=0;entryDy=0;" edge="1" parent="1" source="VgNtUhD-SbEYT73MPKsB-19" target="VgNtUhD-SbEYT73MPKsB-22">
          <mxGeometry relative="1" as="geometry" />
        </mxCell>
        <mxCell id="VgNtUhD-SbEYT73MPKsB-19" value="suitableStrings[suitableCount]&lt;div&gt;index = 0&lt;/div&gt;" style="rounded=0;whiteSpace=wrap;html=1;" vertex="1" parent="1">
          <mxGeometry x="560" y="285" width="180" height="60" as="geometry" />
        </mxCell>
        <mxCell id="VgNtUhD-SbEYT73MPKsB-21" value="No" style="text;html=1;align=center;verticalAlign=middle;whiteSpace=wrap;rounded=0;" vertex="1" parent="1">
          <mxGeometry x="495" y="285" width="60" height="30" as="geometry" />
        </mxCell>
        <mxCell id="VgNtUhD-SbEYT73MPKsB-25" style="edgeStyle=orthogonalEdgeStyle;rounded=0;orthogonalLoop=1;jettySize=auto;html=1;exitX=0.5;exitY=1;exitDx=0;exitDy=0;entryX=0.5;entryY=0;entryDx=0;entryDy=0;" edge="1" parent="1" source="VgNtUhD-SbEYT73MPKsB-22" target="VgNtUhD-SbEYT73MPKsB-24">
          <mxGeometry relative="1" as="geometry" />
        </mxCell>
        <mxCell id="VgNtUhD-SbEYT73MPKsB-34" style="edgeStyle=orthogonalEdgeStyle;rounded=0;orthogonalLoop=1;jettySize=auto;html=1;exitX=1;exitY=0.5;exitDx=0;exitDy=0;" edge="1" parent="1" source="VgNtUhD-SbEYT73MPKsB-22" target="VgNtUhD-SbEYT73MPKsB-33">
          <mxGeometry relative="1" as="geometry">
            <Array as="points">
              <mxPoint x="800" y="415" />
              <mxPoint x="800" y="690" />
              <mxPoint x="474" y="690" />
            </Array>
          </mxGeometry>
        </mxCell>
        <mxCell id="VgNtUhD-SbEYT73MPKsB-22" value="foreach&lt;div&gt;str int inputStrings&lt;/div&gt;" style="rhombus;whiteSpace=wrap;html=1;" vertex="1" parent="1">
          <mxGeometry x="565" y="370" width="170" height="90" as="geometry" />
        </mxCell>
        <mxCell id="VgNtUhD-SbEYT73MPKsB-28" style="edgeStyle=orthogonalEdgeStyle;rounded=0;orthogonalLoop=1;jettySize=auto;html=1;exitX=0.5;exitY=1;exitDx=0;exitDy=0;entryX=0.5;entryY=0;entryDx=0;entryDy=0;" edge="1" parent="1" source="VgNtUhD-SbEYT73MPKsB-24" target="VgNtUhD-SbEYT73MPKsB-27">
          <mxGeometry relative="1" as="geometry" />
        </mxCell>
        <mxCell id="VgNtUhD-SbEYT73MPKsB-31" style="edgeStyle=orthogonalEdgeStyle;rounded=0;orthogonalLoop=1;jettySize=auto;html=1;exitX=0;exitY=0.5;exitDx=0;exitDy=0;" edge="1" parent="1" source="VgNtUhD-SbEYT73MPKsB-24">
          <mxGeometry relative="1" as="geometry">
            <mxPoint x="540" y="530" as="targetPoint" />
          </mxGeometry>
        </mxCell>
        <mxCell id="VgNtUhD-SbEYT73MPKsB-24" value="str.Length &amp;lt;= 3" style="rhombus;whiteSpace=wrap;html=1;" vertex="1" parent="1">
          <mxGeometry x="583.75" y="490" width="132.5" height="80" as="geometry" />
        </mxCell>
        <mxCell id="VgNtUhD-SbEYT73MPKsB-26" value="Yes" style="text;html=1;align=center;verticalAlign=middle;whiteSpace=wrap;rounded=0;" vertex="1" parent="1">
          <mxGeometry x="650" y="460" width="60" height="30" as="geometry" />
        </mxCell>
        <mxCell id="VgNtUhD-SbEYT73MPKsB-30" style="edgeStyle=orthogonalEdgeStyle;rounded=0;orthogonalLoop=1;jettySize=auto;html=1;exitX=0;exitY=0.5;exitDx=0;exitDy=0;" edge="1" parent="1" source="VgNtUhD-SbEYT73MPKsB-27">
          <mxGeometry relative="1" as="geometry">
            <mxPoint x="650" y="350" as="targetPoint" />
            <Array as="points">
              <mxPoint x="540" y="630" />
              <mxPoint x="540" y="360" />
              <mxPoint x="651" y="360" />
            </Array>
          </mxGeometry>
        </mxCell>
        <mxCell id="VgNtUhD-SbEYT73MPKsB-27" value="suitableStrings[index] = str&lt;div&gt;index ++&lt;/div&gt;" style="rounded=0;whiteSpace=wrap;html=1;" vertex="1" parent="1">
          <mxGeometry x="560" y="600" width="180" height="60" as="geometry" />
        </mxCell>
        <mxCell id="VgNtUhD-SbEYT73MPKsB-29" value="Yes" style="text;html=1;align=center;verticalAlign=middle;whiteSpace=wrap;rounded=0;" vertex="1" parent="1">
          <mxGeometry x="656.25" y="570" width="60" height="30" as="geometry" />
        </mxCell>
        <mxCell id="VgNtUhD-SbEYT73MPKsB-32" value="No" style="text;html=1;align=center;verticalAlign=middle;whiteSpace=wrap;rounded=0;" vertex="1" parent="1">
          <mxGeometry x="540" y="495" width="60" height="30" as="geometry" />
        </mxCell>
        <mxCell id="VgNtUhD-SbEYT73MPKsB-33" value="inputStrings[]&lt;div&gt;suitableStrings[]&lt;/div&gt;" style="shape=document;whiteSpace=wrap;html=1;boundedLbl=1;" vertex="1" parent="1">
          <mxGeometry x="409" y="730" width="120" height="80" as="geometry" />
        </mxCell>
        <mxCell id="VgNtUhD-SbEYT73MPKsB-35" value="No" style="text;html=1;align=center;verticalAlign=middle;whiteSpace=wrap;rounded=0;" vertex="1" parent="1">
          <mxGeometry x="730" y="380" width="60" height="30" as="geometry" />
        </mxCell>
        <mxCell id="VgNtUhD-SbEYT73MPKsB-36" value="Конец" style="ellipse;whiteSpace=wrap;html=1;" vertex="1" parent="1">
          <mxGeometry x="409" y="850" width="130" height="60" as="geometry" />
        </mxCell>
        <mxCell id="VgNtUhD-SbEYT73MPKsB-37" value="" style="endArrow=classic;html=1;rounded=0;" edge="1" parent="1" source="VgNtUhD-SbEYT73MPKsB-33">
          <mxGeometry width="50" height="50" relative="1" as="geometry">
            <mxPoint x="470" y="1040" as="sourcePoint" />
            <mxPoint x="469" y="840" as="targetPoint" />
          </mxGeometry>
        </mxCell>
      </root>
    </mxGraphModel>
  </diagram>
</mxfile>
